<svg version="1.1" id="Capa_1" xmlns="http://www.w3.org/2000/svg" xmlns:xlink="http://www.w3.org/1999/xlink" x="0px" y="0px"
	 viewBox="0 0 551 252" style="enable-background:new 0 0 551 252;" xml:space="preserve">
<style type="text/css">
	.st0{fill-rule:evenodd;clip-rule:evenodd;fill:#1C1C24;}
</style>
<g>
	<path class="st0" d="M98.9,144.5c-0.4-16.2,1.7-32.3,6.4-48.5c1.8-6.3,3.6-13.6,8.1-18.6c3.9-4.3,9.3-6.4,16.7-6.5h123.2
		l-35.7-47.7l-98.3,0C76.4,25.4,52,57.9,45.9,120.7c-6.1,62.9,10.6,95.5,50.2,97.8h101.3l47.2-50.9H119
		C104.2,167.6,99.2,158.7,98.9,144.5"/>
	<polygon class="st0" points="414,117.7 501.8,23.2 431.1,23.2 382.9,75.1 343.5,23.2 269.6,23.2 341.5,119.7 249.5,218.5 
		320.2,218.5 372.4,162.4 414.1,218.5 488,218.5 	"/>
</g>
</svg>
